<svg xmlns="http://www.w3.org/2000/svg" id="search_svg" width="24" height="24" viewBox="0 0 24 24"><rect width="24" height="24" fill="none"></rect><path d="M18.989,19.988a1,1,0,0,1-.708-.293l-3.922-3.923a3,3,0,0,1-.4-3.738,6.5,6.5,0,1,0-11.9-2.7,6.562,6.562,0,0,0,4.176,5.237,6.347,6.347,0,0,0,3.655.275,1,1,0,1,1,.422,1.955,8.328,8.328,0,0,1-4.787-.359A8.584,8.584,0,0,1,.068,9.582a8.5,8.5,0,1,1,15.565,3.541.993.993,0,0,0,.14,1.235l3.922,3.923a1,1,0,0,1-.706,1.707" transform="translate(1.999 2)" fill="#333"></path></svg>