<svg xmlns="http://www.w3.org/2000/svg" id="member_svg" width="24" height="24" viewBox="0 0 24 24"><rect width="24" height="24" fill="none"></rect><path d="M.779,19.975a1,1,0,0,1-.753-1.2,9.993,9.993,0,0,1,19.489,0,1,1,0,0,1-.752,1.2,1.011,1.011,0,0,1-.223.025,1,1,0,0,1-.974-.778,7.993,7.993,0,0,0-15.589,0,1,1,0,0,1-1.2.752ZM4.77,5a5,5,0,1,1,5,5A5.006,5.006,0,0,1,4.77,5Zm2,0a3,3,0,1,0,3-3A3,3,0,0,0,6.77,5Z" transform="translate(2 2)" stroke="rgba(0,0,0,0)" stroke-miterlimit="10" stroke-width="1"></path></svg>