<svg xmlns="http://www.w3.org/2000/svg" width="24" height="24" viewBox="0 0 24 24"><path d="M18.714,6.051A3.054,3.054,0,0,0,16.385,5H14.71a5,5,0,0,0-10,0V5H3A3.055,3.055,0,0,0,.674,6.05,2.763,2.763,0,0,0,.032,8.266L1.461,17.56A2.972,2.972,0,0,0,4.432,20h.012l10.525-.041a2.941,2.941,0,0,0,2.959-2.439l1.429-9.252a2.76,2.76,0,0,0-.643-2.217M9.71,2a3,3,0,0,1,3,3h-6a3,3,0,0,1,3-3m7.67,5.962-1.429,9.252a.966.966,0,0,1-.99.745L4.437,18h0a.967.967,0,0,1-1-.745L2.008,7.962a.748.748,0,0,1,.184-.609A1.058,1.058,0,0,1,3,7H4.7L4.7,8.988a1,1,0,0,0,1,1h0a1,1,0,0,0,1-1L6.7,7H12.71V8.992a1,1,0,0,0,2,0V7h1.675a1.06,1.06,0,0,1,.811.353.75.75,0,0,1,.184.609" transform="translate(2 2)" fill="#333"/><rect width="24" height="24" fill="none"/></svg>