<svg xmlns="http://www.w3.org/2000/svg" width="28" height="28" viewBox="0 0 28 28"><path d="M7.948,27a7.942,7.942,0,0,1-5.661-2.122A7.834,7.834,0,0,1,0,19.053V7.893A7.457,7.457,0,0,1,7.893,0H19.107a7.754,7.754,0,0,1,5.715,2.232A7.8,7.8,0,0,1,27,7.893V19.107a7.8,7.8,0,0,1-2.232,5.77A8.041,8.041,0,0,1,19.053,27ZM3.973,3.919A5.427,5.427,0,0,0,2.5,7.893v11.16a5.472,5.472,0,0,0,1.469,4.028A5.628,5.628,0,0,0,7.948,24.5H19.053a5.626,5.626,0,0,0,3.973-1.415,5.319,5.319,0,0,0,1.579-3.973V7.893a5.622,5.622,0,0,0-1.469-3.919A5.429,5.429,0,0,0,19.161,2.5H7.948A5.536,5.536,0,0,0,3.973,3.919Zm2.559,9.527A6.968,6.968,0,1,1,13.5,20.413,6.981,6.981,0,0,1,6.533,13.446Zm2.5,0A4.464,4.464,0,1,0,13.5,8.982,4.483,4.483,0,0,0,9.037,13.446ZM19.161,6.314A1.579,1.579,0,1,1,20.74,7.893,1.579,1.579,0,0,1,19.161,6.314Z" transform="translate(0.5 0.5)" fill="#333" stroke="rgba(0,0,0,0)" stroke-miterlimit="10" stroke-width="1"/></svg>