<svg xmlns="http://www.w3.org/2000/svg" width="27" height="24.813" viewBox="0 0 27 24.813"><path d="M13.5,0C20.956,0,27,4.711,27,10.524S20.956,21.046,13.5,21.046a17.337,17.337,0,0,1-2.22-.141L5.612,24.611c-.644.341-.872.3-.607-.531l1.147-4.729C2.449,17.474,0,14.221,0,10.524,0,4.712,6.044,0,13.5,0m7.595,10.363,1.89-1.831a.607.607,0,0,0-.843-.872l-2.479,2.4V8.077a.607.607,0,1,0-1.214,0v3.288a.6.6,0,0,0,0,.285V13.5a.607.607,0,1,0,1.214,0V11.748l.549-.531,1.836,2.614a.607.607,0,1,0,.994-.7l-1.947-2.771Zm-3.8,2.474H15.414V8.1a.607.607,0,0,0-1.212,0v5.347a.606.606,0,0,0,.606.607h2.484a.607.607,0,0,0,0-1.214m-7.53-1.4.895-2.195.82,2.195ZM13,12.06l0-.021a.6.6,0,0,0-.163-.411L11.5,8.028a.868.868,0,0,0-1.646-.035L7.718,13.233a.607.607,0,0,0,1.124.459l.424-1.045h2.661l.384,1.029a.607.607,0,0,0,1.149-.391l-.013-.033L13,12.06M8.734,8.1A.608.608,0,0,0,8.128,7.5H3.956a.607.607,0,0,0,0,1.214H5.448v4.8a.607.607,0,1,0,1.214,0v-4.8H8.127A.607.607,0,0,0,8.734,8.1" fill="#333"/></svg>