<svg xmlns="http://www.w3.org/2000/svg" id="logo_svg" width="126.4" height="24" viewBox="0 0 126.4 24"><path d="M21.311,3.774a11.381,11.381,0,0,1,3.377,7.833A11.772,11.772,0,0,1,19.019,21.7,17.043,17.043,0,0,1,10.8,23.677c-1.471,0-5.062-.11-7.179-.217-1.076-.034-1.863-.034-2.439-.034C.394,23.426,0,23.14,0,22.85s.5-.536.931-.612c2.19-.285,2.405-.789,2.512-4.06.067-1.973.105-3.411.067-4.956,0-1.868.038-5.891-.1-8.3-.143-2.262-.214-2.875-2.191-3.16C.821,1.69.355,1.4.355,1.148c0-.286.431-.536.97-.536H3.192c1.759,0,5.889-.291,8.541-.291a13.85,13.85,0,0,1,9.578,3.453M8.25,1.979a.573.573,0,0,0-.284.5c-.073.86-.142,3.162-.142,6.322v5.208c0,2.483.035,4.313.142,5.893a2.257,2.257,0,0,0,.715,1.586,5.175,5.175,0,0,0,2.4.965,8.346,8.346,0,0,0,5.384-2.115c2.188-1.834,3.34-5.319,3.34-8.732a11.364,11.364,0,0,0-2.869-7.475A9.949,9.949,0,0,0,10.115,1.58a3.7,3.7,0,0,0-1.865.4m19.2,8.191A22.47,22.47,0,0,0,31.075,8.8a3.216,3.216,0,0,1,.862-.429c.219,0,.431.325.431.429,0,.648-.109,1.331-.109,2.012,0,.11.183.253.292.144,1.111-1.186,2.692-2.227,3.8-2.227,1.58,0,2.086.968,2.086,1.472a1.768,1.768,0,0,1-.219.574A9.687,9.687,0,0,1,36.461,12.9a1.3,1.3,0,0,1-.644-.144,4.644,4.644,0,0,0-2.265-1.007,1.461,1.461,0,0,0-.894.214.864.864,0,0,0-.326.72c0,.719.178,6.971.219,7.512.073,1.112.323,1.759.824,1.866.361.072,1.115.324,1.548.468.564.179.714.43.714.574,0,.288-.429.431-1.008.431-1.077,0-2.944-.18-5.056-.18-.757,0-1.511.106-2.37.106-.4,0-.864-.106-.864-.5,0-.251.538-.43.83-.54,1.288-.466,1.364-.861,1.395-3.016V13.472a2.113,2.113,0,0,0-.281-1.365,5.99,5.99,0,0,1-1.3-1.255c0-.074.078-.573.469-.683M41.378,21.2A2.525,2.525,0,0,1,38.9,23.785,2.448,2.448,0,0,1,36.495,21.2a2.534,2.534,0,0,1,2.441-2.621A2.573,2.573,0,0,1,41.378,21.2M67.582.754a14.686,14.686,0,0,0,1.614.29c.141,0,.394.319.427.825.035,1.041.539,2.875.539,4.312,0,.468-.217.9-.608.9-.181,0-.467-.394-.685-.935a10.9,10.9,0,0,0-1.363-2.517,7.82,7.82,0,0,0-5.744-2.44c-5.419,0-8.609,4.851-8.609,10.455a12.684,12.684,0,0,0,1.5,6.467,8.8,8.8,0,0,0,7.574,4.675,4.618,4.618,0,0,0,2.26-.722,3.348,3.348,0,0,0,.754-2.515,22.487,22.487,0,0,0-.147-3.2c-.21-.826-.494-1.544-2.867-1.763-.537-.035-1.041-.357-1.041-.683,0-.247.5-.5,1.219-.5,1.327,0,3.34.141,4.308.141.864,0,2.837-.212,4.165-.212.678,0,.97.251.97.536,0,.219-.4.542-.829.683-1.219.326-1.182.755-1.257,1.26-.071.431-.177,2.982-.177,4.454,0,.5.138.647.573,1.074.288.221.394.362.394.615,0,.179-.285.466-.536.537-.613.182-1.831.5-3.267.792A40.74,40.74,0,0,1,61.442,24c-3.877,0-7.463-1.183-9.617-3.124a11.607,11.607,0,0,1-3.7-8.946,11.043,11.043,0,0,1,3.986-8.66A14.937,14.937,0,0,1,61.73,0a23.577,23.577,0,0,1,5.852.754m5.381,9.416A22.7,22.7,0,0,0,76.587,8.8a3.058,3.058,0,0,1,.861-.429c.215,0,.431.325.431.429,0,.648-.107,1.331-.107,2.012,0,.11.177.253.288.144,1.113-1.186,2.691-2.227,3.8-2.227,1.583,0,2.083.968,2.083,1.472a1.733,1.733,0,0,1-.218.574A9.521,9.521,0,0,1,81.969,12.9a1.309,1.309,0,0,1-.645-.144,4.653,4.653,0,0,0-2.259-1.007,1.445,1.445,0,0,0-.9.214.851.851,0,0,0-.326.72c0,.719.175,6.971.217,7.512.065,1.112.321,1.759.823,1.866.36.072,1.116.324,1.542.468.581.179.717.43.717.574,0,.288-.431.431-1,.431-1.073,0-2.939-.18-5.057-.18-.759,0-1.511.106-2.369.106-.393,0-.857-.106-.857-.5,0-.251.533-.43.824-.54,1.291-.466,1.361-.861,1.4-3.016V13.472a2.1,2.1,0,0,0-.286-1.365A6,6,0,0,1,72.5,10.852c0-.074.068-.573.466-.683m25.807,6.035a7.5,7.5,0,0,1-3.2,6.109,8.655,8.655,0,0,1-4.948,1.471,8.393,8.393,0,0,1-4.957-1.868,7.675,7.675,0,0,1-2.694-5.532,7.158,7.158,0,0,1,2.483-5.571,8.881,8.881,0,0,1,5.738-2.082,7.543,7.543,0,0,1,7.576,7.473m-10.016-5.5c-.823.754-1.47,2.335-1.47,4.7a12.431,12.431,0,0,0,.434,3.448c.752,2.518,2.4,3.737,3.907,3.737a2.46,2.46,0,0,0,1.581-.9,8.65,8.65,0,0,0,1.327-4.92A10.135,10.135,0,0,0,93.1,11.354a3.418,3.418,0,0,0-2.581-1.438,2.549,2.549,0,0,0-1.763.792m26.6,5.5a7.508,7.508,0,0,1-3.194,6.109,8.686,8.686,0,0,1-4.956,1.471,8.389,8.389,0,0,1-4.95-1.868,7.668,7.668,0,0,1-2.691-5.532,7.188,7.188,0,0,1,2.472-5.571,8.914,8.914,0,0,1,5.742-2.082,7.542,7.542,0,0,1,7.577,7.473m-10.012-5.5c-.824.754-1.471,2.335-1.471,4.7a12.647,12.647,0,0,0,.429,3.448c.751,2.518,2.4,3.737,3.915,3.737a2.486,2.486,0,0,0,1.575-.9,8.667,8.667,0,0,0,1.331-4.92,10.119,10.119,0,0,0-1.438-5.427A3.415,3.415,0,0,0,107.1,9.916a2.522,2.522,0,0,0-1.761.792m19.992-1.581c.142,0,.533.144.533.393,0-.108.114,1.043.114,1.472,0,.361-.683.431-.939.431h-3.409a.37.37,0,0,0-.353.252c0,1.8-.038,5.139-.038,7.26a2,2,0,0,0,.574,1.688,2.976,2.976,0,0,0,1.76.608,4.477,4.477,0,0,0,1.58-.5,1.246,1.246,0,0,1,.607-.254c.1,0,.251.183.251.578a2.139,2.139,0,0,1-.576,1.042,5.628,5.628,0,0,1-4.094,1.688A4.223,4.223,0,0,1,118,22.238a3.58,3.58,0,0,1-.642-2.55c0-1.326.138-6.536.138-7.8,0-.251-.61-.5-1.365-.792a.678.678,0,0,1-.428-.611.346.346,0,0,1,.178-.321,22.513,22.513,0,0,0,3.766-2.875c.434-.5.684-.791.83-.791.251,0,.716.362.716.609v1.8a.427.427,0,0,0,.33.322c.786,0,3.654-.1,3.8-.1" transform="translate(0)" fill="#333"></path><rect width="126.4" height="24" fill="none"></rect></svg>