<svg xmlns="http://www.w3.org/2000/svg" width="111.736" height="18.3" viewBox="0 0 111.736 18.3"><path d="M22.731,12.883V18.3H20.106V3.779h2.606V5.213A3.838,3.838,0,0,1,25.97,3.556a5.094,5.094,0,0,1,4.989,5.4,5.113,5.113,0,0,1-4.971,5.4,3.89,3.89,0,0,1-3.258-1.471m5.585-3.947a2.877,2.877,0,1,0-5.752,0,2.877,2.877,0,1,0,5.752,0M54.993,3.779h2.644V5.008a3.375,3.375,0,0,1,2.886-1.433,3.24,3.24,0,0,1,3.165,1.75,3.685,3.685,0,0,1,3.239-1.75c2.625,0,3.947,1.62,3.947,4.207v6.367H68.155V8.154c0-1.4-.577-2.271-1.918-2.271-1.191,0-1.973.8-1.973,2.439v5.827h-2.7V8.08c0-1.378-.577-2.2-1.862-2.2-1.247,0-2.029.819-2.029,2.495v5.771H55.012Zm22.6-.186a5.333,5.333,0,0,0-4.9,3.034,5.661,5.661,0,0,0-.54,2.383,5.22,5.22,0,0,0,5.492,5.38,5.407,5.407,0,0,0,4.635-2.215l-2.16-1.247A2.814,2.814,0,0,1,77.687,12.1a2.885,2.885,0,0,1-2.979-2.2h8.173a7.236,7.236,0,0,0,.074-.912V8.9a5.159,5.159,0,0,0-5.362-5.306M74.8,7.819a2.879,2.879,0,0,1,2.811-1.992A2.6,2.6,0,0,1,80.33,7.819Zm9.476-4.04H86.92v1.3a3.662,3.662,0,0,1,3.034-1.508c2.457,0,4,1.62,4,4.319v6.255h-2.7V8.284c0-1.471-.707-2.4-2.1-2.4a2.257,2.257,0,0,0-2.215,2.532v5.734H84.277Zm10.407,0H96.6V1.527L99.207,0V3.779h2.718V6.125H99.207v4.263c0,1.1.465,1.471,1.136,1.471a1.279,1.279,0,0,0,.949-.391l1.21,2.066a4.051,4.051,0,0,1-2.476.782c-2.16,0-3.444-1.043-3.444-3.854V6.106H94.665c.019.019.019-2.327.019-2.327M40.044,5.1a3.9,3.9,0,0,0-3.2-1.527,5.1,5.1,0,0,0-5.026,5.4,5.127,5.127,0,0,0,4.989,5.4,3.91,3.91,0,0,0,3.239-1.638v1.415H42.65V3.779H40.044Zm-2.718,6.758a2.923,2.923,0,1,1,2.886-2.923,2.884,2.884,0,0,1-2.886,2.923m14.167-8.08-2.55,6.683L46.262,3.779H43.451l4.17,9.923.056.13L46,18.226v.019h2.755L54.286,3.779ZM104.978,10.8a2.5,2.5,0,0,0,2.383,1.4c1.08,0,1.657-.521,1.657-1.136,0-.745-1.117-.912-2.439-1.191-1.75-.354-3.686-.894-3.7-3.072,0-1.75,1.675-3.277,4.226-3.258a4.975,4.975,0,0,1,4.245,1.9l-2.2,1.285a2.186,2.186,0,0,0-2.029-1.08c-1.043,0-1.527.428-1.527,1.005,0,.652.856.819,2.364,1.154,1.731.335,3.761.931,3.779,3.165,0,1.62-1.433,3.444-4.449,3.425-2.271,0-3.779-.782-4.654-2.2ZM15.954,8.322A6.981,6.981,0,0,0,9.1,2.16H9.029a5.786,5.786,0,0,0-.8.056,6.907,6.907,0,0,0-2.7.894c-.019.019-.037.019-.056.037-.019,0-.037.019-.056.019C1.433,5.548,0,11.021,0,14.353l3.221-1.862A6.608,6.608,0,0,0,8.936,16.1H9.01a5.786,5.786,0,0,0,.8-.056,6.948,6.948,0,0,0,6.143-7.726" fill="#d6d5cc"/></svg>