<svg xmlns="http://www.w3.org/2000/svg" width="27" height="20.256" viewBox="0 0 27 20.256"><path d="M26.73,4.371a6.492,6.492,0,0,0-1.073-2.86A3.725,3.725,0,0,0,22.952.293C19.173,0,13.506,0,13.506,0h-.013S7.826,0,4.048.293A3.726,3.726,0,0,0,1.343,1.511,6.5,6.5,0,0,0,.27,4.371,46.393,46.393,0,0,0,0,9.032v2.184a46.377,46.377,0,0,0,.27,4.661,6.479,6.479,0,0,0,1.073,2.858A4.415,4.415,0,0,0,4.32,19.967c2.16.221,9.18.289,9.18.289s5.673-.01,9.452-.3a3.741,3.741,0,0,0,2.705-1.22,6.49,6.49,0,0,0,1.073-2.858A46.4,46.4,0,0,0,27,11.217V9.033a46.4,46.4,0,0,0-.27-4.661m-16.6,10.821V5.064l8.44,5.064Z" fill="#333"/></svg>